HIERARCHY
ROOT root
{
	OFFSET 0.000000 0.000000 0.000000
	CHANNELS 6 Xposition Yposition Zposition Zrotation Yrotation Xrotation
	JOINT lhip
	{
		OFFSET 0.058581 -0.082280 -0.017664
		CHANNELS 3 Zrotation Yrotation Xrotation
		JOINT lknee
		{
			OFFSET 0.043451 -0.386469 0.008037
			CHANNELS 3 Zrotation Yrotation Xrotation
			JOINT lankle
			{
				OFFSET -0.014790 -0.426874 -0.037428
				CHANNELS 3 Zrotation Yrotation Xrotation
				JOINT ltoe
				{
					OFFSET 0.041054 -0.060286 0.122042
					CHANNELS 3 Zrotation Yrotation Xrotation
					End Site
					{
						OFFSET 0.000000 0.000000 0.000000
					}
				}
			}
		}
	}
	JOINT rhip
	{
		OFFSET -0.060310 -0.090513 -0.013543
		CHANNELS 3 Zrotation Yrotation Xrotation
		JOINT rknee
		{
			OFFSET -0.043257 -0.383688 -0.004843
			CHANNELS 3 Zrotation Yrotation Xrotation
			JOINT rankle
			{
				OFFSET 0.019056 -0.420046 -0.034562
				CHANNELS 3 Zrotation Yrotation Xrotation
				JOINT rtoe
				{
					OFFSET -0.034840 -0.062106 0.130323
					CHANNELS 3 Zrotation Yrotation Xrotation
					End Site
					{
						OFFSET 0.000000 0.000000 0.000000
					}
				}
			}
		}
	}
	JOINT lowerback
	{
		OFFSET 0.004439 0.124404 -0.038385
		CHANNELS 3 Zrotation Yrotation Xrotation
		JOINT upperback
		{
			OFFSET 0.004488 0.137956 0.026820
			CHANNELS 3 Zrotation Yrotation Xrotation
			JOINT chest
			{
				OFFSET -0.002265 0.056032 0.002855
				CHANNELS 3 Zrotation Yrotation Xrotation
				JOINT lowerneck
				{
					OFFSET -0.013390 0.211636 -0.033468
					CHANNELS 3 Zrotation Yrotation Xrotation
					JOINT upperneck
					{
						OFFSET 0.010113 0.088937 0.050410
						CHANNELS 3 Zrotation Yrotation Xrotation
						End Site
						{
							OFFSET 0.000000 0.000000 0.000000
						}
					}
				}
				JOINT lclavicle
				{
					OFFSET 0.071702 0.114000 -0.018898
					CHANNELS 3 Zrotation Yrotation Xrotation
					JOINT lshoulder
					{
						OFFSET 0.122921 0.045205 -0.019046
						CHANNELS 3 Zrotation Yrotation Xrotation
						JOINT lelbow
						{
							OFFSET 0.255332 -0.015649 -0.022946
							CHANNELS 3 Zrotation Yrotation Xrotation
							JOINT lwrist
							{
								OFFSET 0.265709 0.012698 -0.007375
								CHANNELS 3 Zrotation Yrotation Xrotation
								End Site
								{
									OFFSET 0.000000 0.000000 0.000000
								}
							}
						}
					}
				}
				JOINT rclavicle
				{
					OFFSET -0.082954 0.112472 -0.023707
					CHANNELS 3 Zrotation Yrotation Xrotation
					JOINT rshoulder
					{
						OFFSET -0.113228 0.046853 -0.008472
						CHANNELS 3 Zrotation Yrotation Xrotation
						JOINT relbow
						{
							OFFSET -0.260127 -0.014369 -0.031269
							CHANNELS 3 Zrotation Yrotation Xrotation
							JOINT rwrist
							{
								OFFSET -0.269108 0.006794 -0.006027
								CHANNELS 3 Zrotation Yrotation Xrotation
								End Site
								{
									OFFSET 0.000000 0.000000 0.000000
								}
							}
						}
					}
				}
			}
		}
	}
}
MOTION
Frames: 13
Frame Time: 0.033333
1.148220 1.173433 0.987635 -87.716901 1.618858 85.219345 -0.755856 -1.100221 8.122896 -2.798691 -15.725209 3.403826 6.902284 8.472092 -18.512662 0.000000 -0.000000 0.000000 3.195821 -3.222233 7.221429 4.008565 3.557222 6.052977 1.071394 -4.258981 -12.954630 0.000000 -0.000000 0.000000 -3.041369 2.671613 1.891731 1.554400 -1.927920 4.433111 2.206451 -1.124952 5.436563 3.831124 5.070072 -1.459687 1.500439 2.012228 2.892322 -23.485832 7.097311 3.325612 -64.467173 -3.885798 7.350073 11.232318 -27.416064 7.116957 -2.111496 -2.170388 -10.769738 22.589982 -5.080419 3.501060 61.894787 1.058640 9.353667 -15.296929 24.024822 -2.944994 7.890247 0.492932 -10.836235 
1.149510 1.173824 0.987506 -87.707183 1.656585 85.571596 -0.667263 -1.404258 7.598772 -2.901596 -15.474382 3.552949 6.797375 8.448886 -18.514587 0.000000 -0.000000 0.000000 3.295546 -3.159885 6.733003 4.049575 3.474483 6.018794 1.360005 -4.560324 -12.838941 0.000000 -0.000000 0.000000 -3.091479 2.627371 1.612161 1.519884 -1.906171 4.276140 2.201697 -1.147377 5.679945 3.779419 5.389573 -2.122070 1.556303 2.028845 3.118582 -23.254129 7.066373 3.128479 -64.620220 -4.332022 7.791882 11.451553 -28.438401 7.143762 -1.887261 -2.373157 -11.045232 22.646528 -5.246330 3.295993 62.032437 1.115812 9.673576 -15.434285 24.302877 -3.012697 7.921218 0.702924 -11.044589 
1.150243 1.173953 0.987542 -87.772857 1.691620 85.587898 -0.597031 -1.335200 7.523870 -2.939805 -15.433121 3.561632 6.908531 8.406724 -18.502230 0.000000 -0.000000 0.000000 3.294975 -3.391550 6.614839 4.073004 3.538776 6.079567 1.350078 -4.397978 -12.942829 0.000000 -0.000000 0.000000 -3.146470 2.672754 1.632641 1.560242 -1.960506 4.233326 2.238957 -1.154693 5.647253 3.753394 5.255652 -1.642860 1.654676 1.955918 3.105251 -23.050631 6.891625 3.085428 -64.643176 -4.732682 7.921488 11.294502 -29.300914 7.433639 -1.892544 -2.397395 -11.537356 22.430706 -5.191314 3.451052 62.324090 1.190746 9.589314 -15.544800 24.430694 -2.925971 7.967463 0.759116 -11.216311 
1.151065 1.174608 0.987324 -88.194331 1.747590 85.643684 -0.500862 -1.337976 7.621824 -2.885960 -15.197569 3.242801 6.932912 8.487310 -18.398239 0.000000 -0.000000 0.000000 3.406881 -3.038399 6.427254 4.068305 3.522234 6.173870 1.480646 -4.420937 -12.752657 0.000000 -0.000000 0.000000 -3.189906 2.671710 1.402694 1.621162 -1.779810 4.482241 2.253051 -1.075754 5.622525 3.782412 5.323442 -1.801735 1.690385 1.955510 3.458169 -23.008951 6.741768 3.093818 -64.698875 -5.032690 8.097396 11.630853 -30.515640 6.863741 -1.843160 -2.507475 -11.539748 22.473199 -5.103233 3.419784 62.307462 1.331047 9.729308 -15.630913 24.945022 -3.110884 8.146742 1.018095 -11.210531 
1.152144 1.174066 0.987497 -87.981512 1.695194 85.621201 -0.644333 -1.389886 7.389411 -2.894043 -15.130138 3.600256 6.924288 8.361513 -18.413263 0.000000 -0.000000 0.000000 3.133692 -3.359261 6.463137 4.251524 3.489530 6.013828 1.539429 -4.151677 -12.674908 0.000000 -0.000000 0.000000 -3.125038 2.633265 1.706007 1.547017 -1.983706 4.291051 2.222497 -1.094354 5.487622 3.684943 5.545986 -1.507666 1.735007 2.093290 3.591666 -23.036256 6.667578 3.044351 -64.624080 -5.209377 8.090952 11.681408 -30.884967 6.908631 -1.834901 -2.432767 -11.484234 22.465972 -4.998776 3.518751 62.321154 1.350309 9.706984 -15.711163 25.191049 -3.106196 8.025762 0.907512 -11.097967 
1.151048 1.171949 0.987493 -88.206655 1.688290 85.400757 -0.955728 -0.843766 7.842353 -2.461482 -15.340064 3.228459 6.780811 8.364718 -18.086834 0.000000 -0.000000 0.000000 2.717839 -3.789063 6.707007 4.490601 3.716452 6.029870 1.448267 -3.507763 -12.896158 0.000000 -0.000000 0.000000 -2.620810 2.597364 1.551337 1.354770 -1.971811 4.548537 1.950287 -1.074731 5.490538 3.713673 5.241574 -1.235235 1.691199 1.908616 3.446585 -23.067494 6.567150 2.901857 -64.491003 -5.267828 8.029244 11.585013 -31.253978 6.971298 -1.482154 -2.530044 -11.601468 22.324071 -4.891440 3.646929 62.295599 1.363678 9.545851 -15.598644 25.519260 -3.008831 7.823281 0.836304 -10.959435 
1.151714 1.175735 0.987456 -88.906484 1.865967 85.617027 -0.248066 -1.031459 7.889373 -2.848413 -15.038758 2.720114 6.901266 8.546640 -18.299324 0.000000 -0.000000 0.000000 3.585034 -3.170737 6.202283 4.069196 3.722006 6.373097 1.344117 -4.191100 -12.919349 0.000000 -0.000000 0.000000 -3.254555 2.753961 1.096323 1.717976 -1.609015 4.615961 2.268628 -0.983791 5.668063 3.819629 5.269136 -1.295265 1.735119 1.849563 3.839788 -22.811387 6.579630 3.024874 -64.574362 -5.529936 8.162382 11.762873 -31.599608 6.800959 -1.419345 -2.600676 -11.815102 22.405268 -4.973838 3.598142 62.426619 1.531832 9.879805 -15.860271 25.938111 -3.030573 7.938444 1.353868 -11.301423 
1.152246 1.176074 0.987536 -88.852864 1.881482 85.487423 -0.228063 -0.998406 8.021229 -2.792401 -15.136110 2.680022 6.787328 8.503228 -18.119067 0.000000 -0.000000 0.000000 3.593110 -3.240277 6.357355 4.064596 3.677332 6.271118 1.411097 -4.094872 -12.834241 0.000000 -0.000000 0.000000 -3.205101 2.672039 1.304968 1.647679 -1.653319 4.621858 2.219779 -1.010709 5.790497 3.733639 5.488382 -1.453017 1.881338 1.925352 3.871159 -22.666314 6.585226 2.865655 -64.638047 -5.617657 8.227849 11.799621 -31.567657 6.785240 -1.225047 -2.675159 -11.778775 22.378523 -5.038380 3.269983 62.556725 1.628779 9.932741 -15.642165 25.937225 -2.887173 8.029545 1.544157 -11.331196 
1.153467 1.176265 0.987547 -88.752798 1.851931 85.586918 -0.253380 -1.174096 7.793959 -2.835879 -15.124919 2.717844 6.810844 8.582234 -18.123601 0.000000 -0.000000 0.000000 3.606349 -3.038333 6.159252 4.108055 3.564269 6.240139 1.369733 -4.310847 -12.845720 0.000000 -0.000000 0.000000 -3.248752 2.622191 1.357906 1.669046 -1.732205 4.557117 2.184286 -1.064963 5.792335 3.831162 5.243330 -1.571893 1.892885 1.587765 3.992015 -22.771730 6.564330 2.883433 -64.482083 -5.635921 8.216696 11.806637 -31.482333 6.712064 -1.350748 -2.607108 -11.760138 22.286173 -5.010955 3.189111 62.731009 1.552719 10.021087 -15.836691 25.997731 -2.861187 7.820072 0.999397 -11.373094 
1.154425 1.173769 0.988118 -88.127226 1.669829 85.094936 -0.807984 -0.869531 7.854724 -2.597462 -15.404646 3.414768 6.682881 8.273091 -18.000295 0.000000 -0.000000 0.000000 2.883323 -3.676290 6.775783 4.467798 3.510752 5.988962 1.604196 -3.780262 -12.784813 0.000000 -0.000000 0.000000 -2.900162 2.474459 2.217412 1.453526 -2.120327 4.537890 1.986616 -1.254937 5.601639 3.966596 4.668100 -1.245794 1.967985 1.196748 4.085541 -22.986178 6.488969 2.813515 -64.347674 -5.481273 8.007480 11.619092 -30.995947 6.763970 -1.268270 -2.497049 -11.571381 22.271143 -4.940806 3.061001 62.457172 1.533847 9.759996 -15.629845 26.330407 -2.996890 7.467449 1.163259 -10.953180 
1.154686 1.174317 0.987930 -88.209760 1.741783 85.037443 -0.675958 -0.890898 7.921222 -2.651392 -15.361514 3.409087 6.724491 8.338087 -18.100382 0.000000 -0.000000 0.000000 2.995549 -3.662487 6.853075 4.413573 3.494151 5.938426 1.559732 -3.783611 -12.722702 0.000000 -0.000000 0.000000 -2.831269 2.503424 2.209121 1.480680 -2.073329 4.680175 1.999883 -1.281733 5.604515 4.128757 4.069628 -0.815828 2.087559 0.964414 4.041893 -22.936411 6.588669 2.963955 -64.640211 -5.299778 7.877721 11.775003 -30.721765 6.584707 -1.571202 -2.235006 -11.297665 22.009331 -5.025132 3.121865 62.643539 1.542046 9.606616 -15.620191 26.405791 -2.926862 8.126160 1.337292 -10.854622 
1.154634 1.178210 0.987510 -89.194804 1.957604 85.209052 0.014006 -0.884993 8.113319 -2.890866 -15.160425 2.793681 6.913907 8.702682 -18.198022 0.000000 -0.000000 0.000000 3.763142 -2.941815 6.594414 4.214495 3.860482 5.996994 1.431300 -4.433464 -12.461051 0.000000 -0.000000 0.000000 -3.232128 2.769690 1.553313 1.838683 -1.626543 4.925266 2.225173 -1.172867 5.809823 4.213792 4.015567 -0.655851 2.080195 0.957297 4.132183 -22.898552 6.693341 3.131671 -64.560778 -5.206543 7.904257 11.524746 -29.956006 6.757378 -1.651995 -2.325925 -11.773048 22.115912 -5.117674 3.132680 62.613235 1.627229 9.865087 -15.741061 26.565964 -2.888644 7.682459 1.136679 -11.519123 
1.155230 1.178307 0.987779 -88.963827 1.930128 85.052812 -0.040143 -0.838020 8.057953 -2.879917 -15.307614 3.136118 6.732694 8.605229 -18.234461 0.000000 -0.000000 0.000000 3.642183 -3.214371 6.779946 4.282824 3.852702 5.897416 1.646261 -4.349719 -12.449084 0.000000 -0.000000 0.000000 -3.203575 2.721580 1.873746 1.777400 -1.735823 4.884751 2.252826 -1.221238 5.934753 4.061971 4.364817 -1.102819 2.165183 1.060636 4.147944 -23.066216 6.818202 3.042636 -64.645566 -4.921189 7.807802 11.650311 -29.373873 6.600346 -1.252423 -2.211487 -11.372259 22.247860 -5.186348 3.001801 62.379970 1.522983 9.863632 -15.700696 26.750369 -2.955938 7.431627 1.229434 -11.294776 
